#!OML:ASF F:\VICON\USERDATA\INSTALL\rory3\rory3.ASF
:FULLY-SPECIFIED
:DEGREES
166
root 1.6912 15.9256 -25.1606 -15.6036 -48.2906 111.208
lowerback 71.7897 -13.3547 1.06059
upperback -2.78361 -3.81002 19.9709
thorax -32.5376 4.50628 35.3274
lowerneck -9.58206 3.77388 -51.8192
upperneck -13.0679 12.8026 27.2038
head -7.70071 8.34857 17.0716
rclavicle -8.5875e-014 -6.99722e-014
rhumerus 88.1541 13.0164 -57.5494
rradius 46.3214
rwrist -12.7242
rhand -42.9731 43.0428
rfingers 7.12502
rthumb -15.8324 13.6702
lclavicle -8.5875e-014 -6.99722e-014
lhumerus 54.971 32.4755 37.0356
lradius 31.6228
lwrist -17.892
lhand -42.838 21.3521
lfingers 7.12502
lthumb -15.7023 50.735
rfemur -79.6702 8.46139 251.358
rtibia 38.1367
rfoot -100.034 -38.8664
rtoes 48.959
lfemur 112.192 -21.0713 -102.607
ltibia 2.22639e-014
lfoot -111.272 33.3228
ltoes 19.66
167
root 1.79843 15.952 -25.0883 -20.2784 -47.6459 114.372
lowerback 73.8815 -12.4099 0.168162
upperback -3.59887 -3.16741 20.0436
thorax -33.6633 5.27444 36.1927
lowerneck -8.03699 5.09655 -52.7879
upperneck -13.8624 12.0598 26.5994
head -8.08159 7.87458 16.9149
rclavicle 2.48083e-013 -1.01778e-013
rhumerus 88.1666 13.5578 -55.571
rradius 45.9477
rwrist -11.6191
rhand -43.4613 43.6539
rfingers 7.12502
rthumb -16.3026 14.3192
lclavicle 2.48083e-013 -1.01778e-013
lhumerus 54.2708 32.2042 42.134
lradius 33.2182
lwrist -17.3645
lhand -39.2514 31.5769
lfingers 7.12502
lthumb -12.2461 61.1984
rfemur -80.2484 8.27224 251.99
rtibia 38.1587
rfoot -99.0812 -38.5175
rtoes 48.9879
lfemur 112.717 -20.0341 -104.773
ltibia -1.27222e-014
lfoot -112.963 33.1476
ltoes 17.177
168
root 1.88225 15.9604 -24.9983 -24.7875 -46.7938 117.5
lowerback 75.267 -11.4925 -0.748592
upperback -3.81522 -2.79253 19.8784
thorax -34.7795 6.04755 36.9988
lowerneck -6.52824 5.64286 -53.297
upperneck -14.0733 11.8958 26.0398
head -8.31904 7.70551 16.6561
rclavicle -1.27222e-014 -6.99722e-014
rhumerus 88.103 13.873 -53.5074
rradius 45.6686
rwrist -10.9823
rhand -43.9187 44.4831
rfingers 7.12502
rthumb -16.743 15.185
lclavicle -1.27222e-014 -6.99722e-014
lhumerus 52.4452 31.9041 45.6326
lradius 35.2618
lwrist -17.7606
lhand -33.9108 38.561
lfingers 7.12502
lthumb -7.09347 68.4221
rfemur -80.9955 7.99671 252.726
rtibia 38.6465
rfoot -97.8211 -38.4143
rtoes 49.5448
lfemur 113.029 -19.2073 -106.898
ltibia 2.38542e-014
lfoot -111.428 20.5494
ltoes 31.4688
169
root 1.9549 15.951 -24.895 -29.0719 -45.8951 120.484
lowerback 76.4343 -10.7198 -1.47306
upperback -4.1215 -2.54297 19.6327
thorax -35.8524 6.67335 37.4553
lowerneck -5.04889 6.15638 -53.7363
upperneck -14.2385 11.6902 25.5596
head -8.51955 7.52106 16.4394
rclavicle -1.39944e-013 1.59028e-014
rhumerus 87.8952 14.122 -51.7035
rradius 45.3013
rwrist -10.1651
rhand -44.0937 44.9219
rfingers 7.12502
rthumb -16.9114 15.6382
lclavicle -1.39944e-013 1.59028e-014
lhumerus 50.0055 31.357 47.8434
lradius 37.229
lwrist -18.0702
lhand -24.0859 29.4741
lfingers 7.12502
lthumb 2.39436 59.4404
rfemur -81.9063 7.45252 253.822
rtibia 39.5106
rfoot -96.3401 -38.2392
rtoes 50.341
lfemur 112.939 -18.8838 -108.59
ltibia -2.38542e-014
lfoot -111.274 13.7062
ltoes 35.248
170
root 1.99824 15.9209 -24.8182 -33.8977 -43.8058 124.204
lowerback 77.9953 -9.53409 -3.01409
upperback -4.48399 -2.54592 19.255
thorax -37.3111 7.76898 38.9192
lowerneck -3.23482 6.72092 -53.9302
upperneck -14.6021 11.2796 24.6621
head -8.71952 7.23368 16.0173
rclavicle -1.04958e-013 -4.77083e-014
rhumerus 87.6502 14.1999 -49.4564
rradius 44.9102
rwrist -9.47183
rhand -44.0644 45.4761
rfingers 7.12502
rthumb -16.8832 16.19
lclavicle -1.04958e-013 -4.77083e-014
lhumerus 47.6235 30.5045 49.8727
lradius 38.7728
lwrist -17.6548
lhand -24.7348 42.3089
lfingers 7.12502
lthumb 1.76769 72.2814
rfemur -82.4136 7.07584 254.368
rtibia 40.6212
rfoot -94.2972 -37.2426
rtoes 50.9912
lfemur 113.044 -19.2989 -110.926
ltibia 4.29375e-014
lfoot -111.366 13.8294
ltoes 32.6676
171
root 2.00497 15.8851 -24.7161 -38.0381 -42.5076 126.891
lowerback 79.3351 -8.69296 -3.65171
upperback -4.82865 -2.24856 18.9516
thorax -38.6046 8.51225 39.2788
lowerneck -1.33394 7.29854 -53.7498
upperneck -14.9245 10.7819 23.5184
head -8.85485 6.89752 15.45
rclavicle 1.65389e-013 9.54166e-014
rhumerus 87.2467 14.1787 -47.2676
rradius 44.6654
rwrist -9.09071
rhand -44.1053 46.1501
rfingers 7.12502
rthumb -16.9226 16.8673
lclavicle 1.65389e-013 9.54166e-014
lhumerus 45.6823 29.5135 51.7562
lradius 39.5853
lwrist -17.3328
lhand -41.7561 28.9173
lfingers 7.12502
lthumb -14.6602 58.379
rfemur -83.6013 6.84598 255.693
rtibia 41.9236
rfoot -92.6585 -36.0379
rtoes 51.5215
lfemur 112.384 -19.6175 -112.029
ltibia 3.65764e-014
lfoot -110.76 11.4448
ltoes 34.0516
172
root 2.02391 15.8709 -24.6179 -41.0727 -42.5028 128.403
lowerback 80.2188 -7.88661 -3.62978
upperback -4.91989 -1.40001 18.9189
thorax -39.4222 8.88036 38.7406
lowerneck 0.427994 7.81894 -53.7721
upperneck -15.4877 10.4188 23.0185
head -9.16234 6.68858 15.2374
rclavicle -1.46306e-013 -6.36111e-015
rhumerus 86.8406 14.0959 -45.6749
rradius 44.258
rwrist -8.34889
rhand -43.947 46.4701
rfingers 7.12502
rthumb -16.7702 17.1744
lclavicle -1.46306e-013 -6.36111e-015
lhumerus 44.0942 28.5888 53.2614
lradius 39.7219
lwrist -17.9472
lhand -43.3615 29.1611
lfingers 7.12502
lthumb -16.2064 58.5037
rfemur -85.3997 6.39046 257.897
rtibia 43.1348
rfoot -92.2656 -35.6334
rtoes 51.2223
lfemur 111.219 -19.9309 -111.617
ltibia 1.59028e-015
lfoot -109.882 5.25578
ltoes 38.4208
173
root 1.99669 15.8346 -24.5823 -45.4993 -38.5772 131.395
lowerback 81.8425 -8.15404 -4.54068
upperback -5.94258 -2.89152 17.9414
thorax -40.6441 9.20682 39.3346
lowerneck 1.97948 8.14611 -53.704
upperneck -15.7758 9.97142 22.794
head -9.31325 6.4227 15.1647
rclavicle 9.22361e-014 2.06736e-014
rhumerus 86.3981 13.8118 -43.9941
rradius 43.8476
rwrist -7.89224
rhand -43.8086 46.3632
rfingers 7.12502
rthumb -16.6369 17.0563
lclavicle 9.22361e-014 2.06736e-014
lhumerus 43.029 27.4504 54.6111
lradius 39.2981
lwrist -19.2369
lhand -44.3398 29.5478
lfingers 7.12502
lthumb -17.1482 58.8111
rfemur -85.0619 6.65517 258.521
rtibia 44.2776
rfoot -90.0219 -34.5195
rtoes 51.2978
lfemur 111.34 -21.1625 -114.142
ltibia 2.54444e-014
lfoot -109.077 10.0282
ltoes 34.0744
174
root 1.95997 15.8086 -24.5162 -49.126 -35.8898 133.767
lowerback 82.6805 -8.26525 -4.95783
upperback -6.70345 -3.86047 17.172
thorax -41.4855 9.20871 39.0588
lowerneck 3.37742 8.37352 -53.5954
upperneck -15.7958 9.48176 22.6459
head -9.32849 6.11409 15.1245
rclavicle -2.29e-013 -1.46306e-013
rhumerus 85.8472 13.5055 -42.5232
rradius 43.4972
rwrist -7.62371
rhand -43.5424 46.3451
rfingers 7.12502
rthumb -16.3807 17.0168
lclavicle -2.29e-013 -1.46306e-013
lhumerus 42.1067 26.0656 55.764
lradius 39.0628
lwrist -19.8709
lhand -43.6595 30.4973
lfingers 7.12502
lthumb -16.4934 59.8162
rfemur -85.239 5.98106 260.634
rtibia 45.3767
rfoot -86.8989 -33.5974
rtoes 51.8734
lfemur 110.382 -22.5018 -115.332
ltibia 3.49861e-014
lfoot -108.035 13.6179
ltoes 30.5724
175
root 1.94438 15.7992 -24.471 -52.0417 -33.5136 135.254
lowerback 83.7887 -7.8998 -5.4726
upperback -7.17547 -4.22212 16.7056
thorax -42.5103 9.6492 39.2774
lowerneck 4.90959 8.66581 -52.7845
upperneck -15.7456 8.95224 21.8538
head -9.26526 5.76149 14.6918
rclavicle 3.81667e-014 -6.52014e-014
rhumerus 85.298 13.2548 -41.024
rradius 43.0647
rwrist -7.18435
rhand -43.0535 46.5382
rfingers 7.12502
rthumb -15.9099 17.1717
lclavicle 3.81667e-014 -6.52014e-014
lhumerus 41.222 24.5724 57.1688
lradius 38.8551
lwrist -19.6849
lhand -43.2126 31.1573
lfingers 7.12502
lthumb -16.063 60.5115
rfemur -85.1955 5.02496 263.637
rtibia 46.2143
rfoot -83.5958 -32.3689
rtoes 52.4951
lfemur 109.53 -23.9026 -115.869
ltibia -3.81667e-014
lfoot -106.828 17.1535
ltoes 26.6689
176
root 1.71513 15.7585 -24.4938 -54.7205 -31.098 136.563
lowerback 84.2616 -8.19555 -5.66499
upperback -7.78243 -5.19158 16.0816
thorax -42.7934 9.30881 38.7441
lowerneck 5.7386 8.66357 -52.4358
upperneck -15.5186 8.55949 21.9241
head -9.14077 5.49343 14.7246
rclavicle 2.06736e-013 1.39944e-013
rhumerus 84.8056 12.9761 -40.4697
rradius 42.3738
rwrist -6.44933
rhand -42.9337 46.8364
rfingers 7.12502
rthumb -15.7945 17.4607
lclavicle 2.06736e-013 1.39944e-013
lhumerus 40.9652 23.2583 58.2136
lradius 38.1352
lwrist -19.4968
lhand -43.0521 31.5745
lfingers 7.12502
lthumb -15.9086 60.941
rfemur -120.215 -35.233 382.944
rtibia 47.0897
rfoot 19.3646 22.9265
rtoes 61.5201
lfemur 107.594 -26.2971 -115.266
ltibia 6.36111e-015
lfoot -105.833 18.5958
ltoes 24.3817
177
root 1.72401 15.7811 -24.4519 -57.2271 -28.0923 137.653
lowerback 84.6996 -8.62123 -5.93441
upperback -8.42846 -6.42545 15.3946
thorax -43.0452 8.94568 38.3536
lowerneck 6.42807 8.56217 -51.9641
upperneck -15.4043 8.13951 21.9588
head -9.0195 5.23116 14.7404
rclavicle -6.36111e-014 -9.54166e-015
rhumerus 84.2296 12.5656 -40.0762
rradius 41.6711
rwrist -5.18041
rhand -42.9676 47.0023
rfingers 7.12502
rthumb -15.8272 17.6292
lclavicle -6.36111e-014 -9.54166e-015
lhumerus 41.3228 22.2314 59.9648
lradius 37.1414
lwrist -20.0156
lhand -42.9839 31.5424
lfingers 7.12502
lthumb -15.8429 60.9142
rfemur -121.393 -35.818 384.919
rtibia 47.4058
rfoot 20.442 24.6484
rtoes 61.04
lfemur 106.415 -27.8503 -115.86
ltibia -9.54166e-015
lfoot -105.169 20.783
ltoes 19.4927
178
root 1.73832 15.8007 -24.4018 -59.3723 -25.9627 138.333
lowerback 85.2178 -8.49801 -6.06164
upperback -8.80772 -6.74973 14.9854
thorax -43.586 8.92013 37.8982
lowerneck 7.40419 8.38627 -51.027
upperneck -15.4909 7.49739 21.673
head -8.90277 4.86709 14.5884
rclavicle 1.27222e-013 8.74653e-014
rhumerus 83.4661 12.0362 -39.4051
rradius 40.9616
rwrist -3.89195
rhand -42.9134 47.2186
rfingers 7.12502
rthumb -15.7749 17.8415
lclavicle 1.27222e-013 8.74653e-014
lhumerus 41.8361 21.1355 62.3002
lradius 36.1431
lwrist -21.0508
lhand -42.7797 31.577
lfingers 7.12502
lthumb -15.6462 60.9643
rfemur -121.745 -36.078 386.172
rtibia 47.7325
rfoot 18.6454 25.9292
rtoes 60.5416
lfemur 104.832 -29.3555 -115.429
ltibia -1.90833e-014
lfoot -103.546 24.2411
ltoes 18.3376
179
root 1.76711 15.8133 -24.3467 -61.2395 -24.33 138.754
lowerback 84.7862 -9.08304 -5.83506
upperback -9.1229 -7.56732 14.5323
thorax -42.908 7.94722 36.6963
lowerneck 7.50712 7.93988 -50.9009
upperneck -15.4158 7.00771 22.2212
head -8.70983 4.6045 14.9116
rclavicle -1.17681e-013 1.43125e-014
rhumerus 83.0499 11.5287 -39.4783
rradius 40.2504
rwrist -2.96273
rhand -43.1386 47.3859
rfingers 7.12502
rthumb -15.9918 18.0259
lclavicle -1.17681e-013 1.43125e-014
lhumerus 42.5311 20.2664 63.5558
lradius 35.1763
lwrist -21.5852
lhand -42.3326 31.8774
lfingers 7.12502
lthumb -15.2156 61.2979
rfemur -125.092 -35.6144 392.901
rtibia 47.799
rfoot 21.8067 28.3192
rtoes 60.186
lfemur 103.055 -30.8255 -114.404
ltibia 1.145e-013
lfoot -101.773 23.7645
ltoes 22.3075
